ModelForces
version=1
nRows=4
nColumns=202
inDegrees=no

This file contains the forces exerted on a model during a simulation.

A force is a generalized force, meaning that it can be either a force (N) or a torque (Nm).

Units are S.I. units (second, meters, Newtons, ...)
Angles are in degrees.

endheader
time	glut_med1_r	glut_med2_r	glut_med3_r	glut_min1_r	glut_min2_r	glut_min3_r	semimem_r	semiten_r	bifemlh_r	bifemsh_r	sar_r	add_long_r	add_brev_r	add_mag1_r	add_mag2_r	add_mag3_r	tfl_r	pect_r	grac_r	glut_max1_r	glut_max2_r	glut_max3_r	iliacus_r	psoas_r	quad_fem_r	gem_r	peri_r	rect_fem_r	vas_med_r	vas_int_r	vas_lat_r	med_gas_r	lat_gas_r	soleus_r	tib_post_r	flex_dig_r	flex_hal_r	tib_ant_r	per_brev_r	per_long_r	per_tert_r	ext_dig_r	ext_hal_r	glut_med1_l	glut_med2_l	glut_med3_l	glut_min1_l	glut_min2_l	glut_min3_l	semimem_l	semiten_l	bifemlh_l	bifemsh_l	sar_l	add_long_l	add_brev_l	add_mag1_l	add_mag2_l	add_mag3_l	tfl_l	pect_l	grac_l	glut_max1_l	glut_max2_l	glut_max3_l	iliacus_l	psoas_l	quad_fem_l	gem_l	peri_l	rect_fem_l	vas_med_l	vas_int_l	vas_lat_l	med_gas_l	lat_gas_l	soleus_l	tib_post_l	flex_dig_l	flex_hal_l	tib_ant_l	per_brev_l	per_long_l	per_tert_l	ext_dig_l	ext_hal_l	ercspn_r	ercspn_l	intobl_r	intobl_l	extobl_r	extobl_l	femur_lat_meniscii_l.femur_lat_l.force.X	femur_lat_meniscii_l.femur_lat_l.force.Y	femur_lat_meniscii_l.femur_lat_l.force.Z	femur_lat_meniscii_l.femur_lat_l.torque.X	femur_lat_meniscii_l.femur_lat_l.torque.Y	femur_lat_meniscii_l.femur_lat_l.torque.Z	femur_lat_meniscii_l.meniscus_lat_l.force.X	femur_lat_meniscii_l.meniscus_lat_l.force.Y	femur_lat_meniscii_l.meniscus_lat_l.force.Z	femur_lat_meniscii_l.meniscus_lat_l.torque.X	femur_lat_meniscii_l.meniscus_lat_l.torque.Y	femur_lat_meniscii_l.meniscus_lat_l.torque.Z	femur_med_meniscii_l.femur_med_l.force.X	femur_med_meniscii_l.femur_med_l.force.Y	femur_med_meniscii_l.femur_med_l.force.Z	femur_med_meniscii_l.femur_med_l.torque.X	femur_med_meniscii_l.femur_med_l.torque.Y	femur_med_meniscii_l.femur_med_l.torque.Z	femur_med_meniscii_l.meniscus_med_l.force.X	femur_med_meniscii_l.meniscus_med_l.force.Y	femur_med_meniscii_l.meniscus_med_l.force.Z	femur_med_meniscii_l.meniscus_med_l.torque.X	femur_med_meniscii_l.meniscus_med_l.torque.Y	femur_med_meniscii_l.meniscus_med_l.torque.Z	femur_lat_meniscii_r.femur_lat_r.force.X	femur_lat_meniscii_r.femur_lat_r.force.Y	femur_lat_meniscii_r.femur_lat_r.force.Z	femur_lat_meniscii_r.femur_lat_r.torque.X	femur_lat_meniscii_r.femur_lat_r.torque.Y	femur_lat_meniscii_r.femur_lat_r.torque.Z	femur_lat_meniscii_r.meniscus_lat_r.force.X	femur_lat_meniscii_r.meniscus_lat_r.force.Y	femur_lat_meniscii_r.meniscus_lat_r.force.Z	femur_lat_meniscii_r.meniscus_lat_r.torque.X	femur_lat_meniscii_r.meniscus_lat_r.torque.Y	femur_lat_meniscii_r.meniscus_lat_r.torque.Z	femur_med_meniscii_r.femur_med_r.force.X	femur_med_meniscii_r.femur_med_r.force.Y	femur_med_meniscii_r.femur_med_r.force.Z	femur_med_meniscii_r.femur_med_r.torque.X	femur_med_meniscii_r.femur_med_r.torque.Y	femur_med_meniscii_r.femur_med_r.torque.Z	femur_med_meniscii_r.meniscus_med_r.force.X	femur_med_meniscii_r.meniscus_med_r.force.Y	femur_med_meniscii_r.meniscus_med_r.force.Z	femur_med_meniscii_r.meniscus_med_r.torque.X	femur_med_meniscii_r.meniscus_med_r.torque.Y	femur_med_meniscii_r.meniscus_med_r.torque.Z	femur_med_tibia_l.tibia_upper_l.force.X	femur_med_tibia_l.tibia_upper_l.force.Y	femur_med_tibia_l.tibia_upper_l.force.Z	femur_med_tibia_l.tibia_upper_l.torque.X	femur_med_tibia_l.tibia_upper_l.torque.Y	femur_med_tibia_l.tibia_upper_l.torque.Z	femur_med_tibia_l.femur_med_l.force.X	femur_med_tibia_l.femur_med_l.force.Y	femur_med_tibia_l.femur_med_l.force.Z	femur_med_tibia_l.femur_med_l.torque.X	femur_med_tibia_l.femur_med_l.torque.Y	femur_med_tibia_l.femur_med_l.torque.Z	femur_lat_tibia_l.tibia_upper_l.force.X	femur_lat_tibia_l.tibia_upper_l.force.Y	femur_lat_tibia_l.tibia_upper_l.force.Z	femur_lat_tibia_l.tibia_upper_l.torque.X	femur_lat_tibia_l.tibia_upper_l.torque.Y	femur_lat_tibia_l.tibia_upper_l.torque.Z	femur_lat_tibia_l.femur_lat_l.force.X	femur_lat_tibia_l.femur_lat_l.force.Y	femur_lat_tibia_l.femur_lat_l.force.Z	femur_lat_tibia_l.femur_lat_l.torque.X	femur_lat_tibia_l.femur_lat_l.torque.Y	femur_lat_tibia_l.femur_lat_l.torque.Z	femur_med_tibia_r.tibia_upper_r.force.X	femur_med_tibia_r.tibia_upper_r.force.Y	femur_med_tibia_r.tibia_upper_r.force.Z	femur_med_tibia_r.tibia_upper_r.torque.X	femur_med_tibia_r.tibia_upper_r.torque.Y	femur_med_tibia_r.tibia_upper_r.torque.Z	femur_med_tibia_r.femur_med_r.force.X	femur_med_tibia_r.femur_med_r.force.Y	femur_med_tibia_r.femur_med_r.force.Z	femur_med_tibia_r.femur_med_r.torque.X	femur_med_tibia_r.femur_med_r.torque.Y	femur_med_tibia_r.femur_med_r.torque.Z	femur_lat_tibia_r.tibia_upper_r.force.X	femur_lat_tibia_r.tibia_upper_r.force.Y	femur_lat_tibia_r.tibia_upper_r.force.Z	femur_lat_tibia_r.tibia_upper_r.torque.X	femur_lat_tibia_r.tibia_upper_r.torque.Y	femur_lat_tibia_r.tibia_upper_r.torque.Z	femur_lat_tibia_r.femur_lat_r.force.X	femur_lat_tibia_r.femur_lat_r.force.Y	femur_lat_tibia_r.femur_lat_r.force.Z	femur_lat_tibia_r.femur_lat_r.torque.X	femur_lat_tibia_r.femur_lat_r.torque.Y	femur_lat_tibia_r.femur_lat_r.torque.Z	aACL_R	pACL_R	aPCL_R	pPCL_R	aMCL_R	aLCL_R	aPCL_L	pPCL_L	aMCL_L	aLCL_L	ground_prescribedForce_0_fx	ground_prescribedForce_0_fy	ground_prescribedForce_0_fz
      0.43928905	      7.65588050	      5.74009745	      6.14528931	      2.69233545	      3.21507701	      3.23830176	      8.57660080	      4.07046479	      8.96000422	      7.56506699	      1.70739375	      5.68780144	      4.19260381	      2.95694284	      2.48644906	      4.04640024	      4.36911301	      2.26701463	      1.56778845	      3.70400889	      5.62907198	      4.20296696	     22.78241521	     13.11847714	      3.67322747	      2.87611211	      4.17666989	     11.31170599	      6.80279522	      7.48326388	     10.27260728	      4.35511178	      2.29883093	      8.34915744	     11.23310751	      1.83452900	      2.38920166	     14.98968853	      3.37569661	      6.75709201	     10.07648456	      9.80274907	      2.25843941	      7.65588050	      5.74009745	      6.14528931	      2.69233545	      3.21507701	      3.23830176	      8.90241164	      4.14105906	      7.81368564	      7.30870494	      1.53874557	      5.68780144	      4.19260381	      2.95694284	      2.48644906	      4.04640024	      4.13347727	      2.26701463	      1.57853195	      3.70400889	      5.62907198	      4.20296696	     22.78241521	     13.11847714	      3.67322747	      2.87611211	      4.17666989	     10.84523686	      6.68118090	      7.66582270	      8.24226352	     14.33836223	      6.65791875	     31.74387800	     42.61688772	      2.82345204	      2.98567295	      8.58580255	      4.41430658	     12.63979702	      2.02940449	      5.36194491	      1.70225109	     25.32142531	     25.32142531	      9.12361815	      9.12361815	     26.91564979	     26.91564979	      2.76307435	     50.99597937	     -9.56042239	      5.21997485	     -0.02578839	      1.48581788	     -2.76307435	    -50.99597937	      9.56042239	     -1.74637766	      0.02558040	     -0.48301696	     -3.31599387	     20.97615968	     -3.40468921	      0.94473225	     -0.02138609	     -1.00501789	      3.31599387	    -20.97615968	      3.40468921	      0.28075727	      0.00368718	     -0.29758878	     24.07517866	     60.51695332	     13.52221504	     -7.10882687	      0.56139213	     10.14119382	    -24.07517866	    -60.51695332	    -13.52221504	      2.11157102	     -0.66559389	     -0.77765389	     57.75544549	     97.23858809	      6.64150982	     -0.67418190	     -1.25741918	     24.36308770	    -57.75544549	    -97.23858809	     -6.64150982	     -1.53397307	      1.03869900	     -1.95839061	      0.00000000	      0.00000000	      0.00000000	      0.00000000	      0.00000000	      0.00000000	      0.00000000	      0.00000000	      0.00000000	      0.00000000	      0.00000000	      0.00000000	      0.00000000	      0.00000000	      0.00000000	      0.00000000	      0.00000000	      0.00000000	      0.00000000	      0.00000000	      0.00000000	      0.00000000	      0.00000000	      0.00000000	      0.00000000	      0.00000000	      0.00000000	      0.00000000	      0.00000000	      0.00000000	      0.00000000	      0.00000000	      0.00000000	      0.00000000	      0.00000000	      0.00000000	      0.00000000	      0.00000000	      0.00000000	      0.00000000	      0.00000000	      0.00000000	      0.00000000	      0.00000000	      0.00000000	      0.00000000	      0.00000000	      0.00000000	     13.86109515	     36.30758401	      0.00000000	      0.00000000	     37.91505530	      0.00000000	      0.00000000	      0.00000000	      0.00000001	      0.00000000	    110.00000000	      0.00000000	      0.00000000
      0.44283236	      7.65095297	      5.73670462	      6.14161189	      2.69081158	      3.21342822	      3.23622178	      8.55503875	      4.06074722	      8.93429770	      7.51018985	      1.48716734	      5.68440027	      4.19025233	      2.95520778	      2.48495529	      4.04370844	      4.36679415	      2.26572333	      1.55174534	      3.70182114	      5.62573710	      4.20043137	     22.77626146	     13.11155299	      3.67110316	      2.87511675	      4.17275928	     11.27732396	      6.75403845	      7.42806338	     10.20237945	      4.33318968	      2.29236866	      8.31232183	     11.28486062	      1.87587827	      2.36786026	     15.07311139	      3.37656198	      6.75099350	     10.12038491	      9.74610653	      2.24743910	      7.65095297	      5.73670462	      6.14161189	      2.69081158	      3.21342822	      3.23622178	      8.89524852	      4.13841921	      7.80771944	      7.30447554	      1.53787861	      5.68440027	      4.19025233	      2.95520778	      2.48495529	      4.04370844	      4.13181188	      2.26572333	      1.57762714	      3.70182114	      5.62573710	      4.20043137	     22.77626146	     13.11155299	      3.67110316	      2.87511675	      4.17275928	     10.83711472	      6.67714101	      7.66109800	      8.23720895	     14.32154307	      6.65009818	     31.71420860	     42.60520970	      2.81930077	      2.98240769	      8.57968747	      4.41065404	     12.63116549	      2.02833064	      5.35809291	      1.70111873	     25.30706067	     25.30706067	      9.11798207	      9.11798207	     26.91058707	     26.91058707	      2.76307435	     50.99597937	     -9.56042239	      5.21997485	     -0.02578839	      1.48581788	     -2.76307435	    -50.99597937	      9.56042239	     -1.74637766	      0.02558040	     -0.48301696	     -3.31599387	     20.97615968	     -3.40468921	      0.94473225	     -0.02138609	     -1.00501789	      3.31599387	    -20.97615968	      3.40468921	      0.28075727	      0.00368718	     -0.29758878	     22.37821025	     58.89534711	     13.17545199	     -6.92340266	      0.52193806	      9.42577099	    -22.37821025	    -58.89534711	    -13.17545199	      2.05267206	     -0.61906806	     -0.71876508	     56.35915227	     94.77194923	      6.41234533	     -0.62901782	     -1.22920916	     23.77592794	    -56.35915227	    -94.77194923	     -6.41234533	     -1.50188675	      1.01712737	     -1.91257330	      0.00000000	      0.00000000	      0.00000000	      0.00000000	      0.00000000	      0.00000000	      0.00000000	      0.00000000	      0.00000000	      0.00000000	      0.00000000	      0.00000000	      0.00000000	      0.00000000	      0.00000000	      0.00000000	      0.00000000	      0.00000000	      0.00000000	      0.00000000	      0.00000000	      0.00000000	      0.00000000	      0.00000000	      0.00000000	      0.00000000	      0.00000000	      0.00000000	      0.00000000	      0.00000000	      0.00000000	      0.00000000	      0.00000000	      0.00000000	      0.00000000	      0.00000000	      0.00000000	      0.00000000	      0.00000000	      0.00000000	      0.00000000	      0.00000000	      0.00000000	      0.00000000	      0.00000000	      0.00000000	      0.00000000	      0.00000000	     14.29459005	     36.92269815	      0.00000000	      0.00000000	     38.38655663	      0.00000000	      0.00000000	      0.00000000	      0.00000001	      0.00000000	    110.00000000	      0.00000000	      0.00000000
      0.44637567	      7.64624571	      5.73346333	      6.13809876	      2.68935574	      3.21185305	      3.23423478	      8.56437906	      4.06815906	      8.93203890	      7.55232170	      1.70747818	      5.68115105	      4.18800580	      2.95355022	      2.48352826	      4.04113700	      4.37026686	      2.26448969	      1.56752330	      3.69973113	      5.62255120	      4.19800907	     22.77038270	     13.10493853	      3.66907371	      2.87416592	      4.16902039	     11.27793245	      6.80109118	      7.46631021	     10.24669537	      4.35042569	      2.30145115	      8.31786930	     11.32921678	      1.92637308	      2.35307894	     15.14113404	      3.38244050	      6.75242410	     10.14260064	      9.65945899	      2.23182294	      7.64624571	      5.73346333	      6.13809876	      2.68935574	      3.21185305	      3.23423478	      8.88840456	      4.13589736	      7.80201951	      7.30043501	      1.53705035	      5.68115105	      4.18800580	      2.95355022	      2.48352826	      4.04113700	      4.13022100	      2.26448969	      1.57676272	      3.69973113	      5.62255120	      4.19800907	     22.77038270	     13.10493853	      3.66907371	      2.87416592	      4.16902039	     10.82935523	      6.67328167	      7.65658451	      8.23238034	     14.30542920	      6.64260548	     31.68584328	     42.59404905	      2.81526144	      2.97924974	      8.57384567	      4.40716390	     12.62290766	      2.02730479	      5.35446064	      1.70005226	     25.29333732	     25.29333732	      9.11259785	      9.11259785	     26.90575058	     26.90575058	      2.76307435	     50.99597937	     -9.56042239	      5.21997485	     -0.02578839	      1.48581788	     -2.76307435	    -50.99597937	      9.56042239	     -1.74637766	      0.02558040	     -0.48301696	     -3.31599387	     20.97615968	     -3.40468921	      0.94473225	     -0.02138609	     -1.00501789	      3.31599387	    -20.97615968	      3.40468921	      0.28075727	      0.00368718	     -0.29758878	     23.27076119	     60.69639479	     13.65899427	     -7.16844701	      0.54262053	      9.80360978	    -23.27076119	    -60.69639479	    -13.65899427	      2.11629742	     -0.64312947	     -0.74965645	     57.98165351	     97.67334712	      6.85426326	     -0.75007185	     -1.26580142	     24.46144380	    -57.98165351	    -97.67334712	     -6.85426326	     -1.54297416	      1.04852201	     -1.96785107	      0.00000000	      0.00000000	      0.00000000	      0.00000000	      0.00000000	      0.00000000	      0.00000000	      0.00000000	      0.00000000	      0.00000000	      0.00000000	      0.00000000	      0.00000000	      0.00000000	      0.00000000	      0.00000000	      0.00000000	      0.00000000	      0.00000000	      0.00000000	      0.00000000	      0.00000000	      0.00000000	      0.00000000	      0.00000000	      0.00000000	      0.00000000	      0.00000000	      0.00000000	      0.00000000	      0.00000000	      0.00000000	      0.00000000	      0.00000000	      0.00000000	      0.00000000	      0.00000000	      0.00000000	      0.00000000	      0.00000000	      0.00000000	      0.00000000	      0.00000000	      0.00000000	      0.00000000	      0.00000000	      0.00000000	      0.00000000	     14.20856630	     37.09640304	      0.00000000	      0.00000000	     37.52743131	      0.00000000	      0.00000000	      0.00000000	      0.00000001	      0.00000000	    110.00000000	      0.00000000	      0.00000000
      0.44991898	      7.64174885	      5.73036680	      6.13474255	      2.68796489	      3.21034823	      3.23233658	      8.54672811	      4.05922302	      8.90772121	      7.48918011	      1.48694883	      5.67804698	      4.18585954	      2.95196669	      2.48216498	      4.03868051	      4.36674263	      2.26331111	      1.55122113	      3.69773447	      5.61950761	      4.19569499	     22.76476662	     13.09861987	      3.66713488	      2.87325760	      4.16544576	     11.24853321	      6.76311080	      7.42484191	     10.19823556	      4.33027938	      2.29297020	      8.28288200	     11.35906287	      1.98394317	      2.34223081	     15.22050912	      3.39067016	      6.75797057	     10.18851338	      9.55318051	      2.21573551	      7.64174885	      5.73036680	      6.13474255	      2.68796489	      3.21034823	      3.23233658	      8.88186555	      4.13348821	      7.79657396	      7.29657489	      1.53625906	      5.67804698	      4.18585954	      2.95196669	      2.48216498	      4.03868051	      4.12870128	      2.26331111	      1.57593690	      3.69773447	      5.61950761	      4.19569499	     22.76476662	     13.09861987	      3.66713488	      2.87325760	      4.16544576	     10.82194218	      6.66959479	      7.65227274	      8.22776756	     14.28999172	      6.63542721	     31.65872521	     42.58338292	      2.81132647	      2.97619239	      8.56826492	      4.40382897	     12.61500755	      2.02632481	      5.35104083	      1.69904956	     25.28022658	     25.28022658	      9.10745420	      9.10745420	     26.90113021	     26.90113021	      2.76307435	     50.99597937	     -9.56042239	      5.21997485	     -0.02578839	      1.48581788	     -2.76307435	    -50.99597937	      9.56042239	     -1.74637766	      0.02558040	     -0.48301696	     -3.31599387	     20.97615968	     -3.40468921	      0.94473225	     -0.02138609	     -1.00501789	      3.31599387	    -20.97615968	      3.40468921	      0.28075727	      0.00368718	     -0.29758878	     22.70117140	     59.12398607	     13.27804932	     -6.97058047	      0.52866212	      9.56509647	    -22.70117140	    -59.12398607	    -13.27804932	      2.05844807	     -0.62622323	     -0.73252186	     56.26748484	     94.89634913	      6.67438988	     -0.73250502	     -1.22987010	     23.73998978	    -56.26748484	    -94.89634913	     -6.67438988	     -1.50323217	      1.02018935	     -1.91069164	      0.00000000	      0.00000000	      0.00000000	      0.00000000	      0.00000000	      0.00000000	      0.00000000	      0.00000000	      0.00000000	      0.00000000	      0.00000000	      0.00000000	      0.00000000	      0.00000000	      0.00000000	      0.00000000	      0.00000000	      0.00000000	      0.00000000	      0.00000000	      0.00000000	      0.00000000	      0.00000000	      0.00000000	      0.00000000	      0.00000000	      0.00000000	      0.00000000	      0.00000000	      0.00000000	      0.00000000	      0.00000000	      0.00000000	      0.00000000	      0.00000000	      0.00000000	      0.00000000	      0.00000000	      0.00000000	      0.00000000	      0.00000000	      0.00000000	      0.00000000	      0.00000000	      0.00000000	      0.00000000	      0.00000000	      0.00000000	     14.61358766	     37.70038819	      0.00000000	      0.00000000	     38.03595595	      0.00000000	      0.00000000	      0.00000000	      0.00000001	      0.00000000	    110.00000000	      0.00000000	      0.00000000
